<svg t="1743697831203" class="icon" viewBox="0 0 1024 1024" version="1.1" xmlns="http://www.w3.org/2000/svg" p-id="34391" width="200" height="200"><path d="M512 512m-512 0a512 512 0 1 0 1024 0 512 512 0 1 0-1024 0Z" fill="#FBD3DE" opacity=".288" p-id="34392"></path><path d="M512 68.923077c244.706462 0 443.076923 198.370462 443.076923 443.076923s-198.370462 443.076923-443.076923 443.076923-443.076923-198.370462-443.076923-443.076923 198.370462-443.076923 443.076923-443.076923z" fill="#FFD0D4" p-id="34393"></path><path d="M761.974154 860.322462c-69.833846 50.678154-155.136 80.462769-247.512616 80.462769-92.376615 0-177.673846-29.784615-247.512615-80.462769v-222.267077c0-137.806769 110.941538-249.831385 247.512615-249.831385 136.571077 0 247.512615 112.024615 247.512616 249.831385v222.267077z" fill="#FD868C" p-id="34394"></path><path d="M553.137231 545.147077c0 18.412308 14.838154 33.339077 33.147077 33.339077s33.147077-14.926769 33.147077-33.339077-14.838154-33.344-33.147077-33.344-33.147077 14.926769-33.147077 33.344zM409.491692 545.147077c0 18.412308 14.838154 33.339077 33.147077 33.339077s33.147077-14.926769 33.147077-33.339077-14.838154-33.344-33.147077-33.344-33.147077 14.926769-33.147077 33.344zM503.857231 772.972308c-79.453538 0-144.088615-63.921231-144.088616-142.488616v-7.542154h287.276308v7.542154c0.900923 78.572308-63.739077 142.488615-143.187692 142.488616z" fill="#FFFFFF" p-id="34395"></path></svg>