<?xml version="1.0" standalone="no"?><!DOCTYPE svg PUBLIC "-//W3C//DTD SVG 1.1//EN" "http://www.w3.org/Graphics/SVG/1.1/DTD/svg11.dtd"><svg t="1747933951677" class="icon" viewBox="0 0 1024 1024" version="1.1" xmlns="http://www.w3.org/2000/svg" p-id="4617" xmlns:xlink="http://www.w3.org/1999/xlink" width="200" height="200"><path d="M856.1 187.4H167.9c-26.9 0-48.8 21.9-48.8 48.8v551.6c0 26.9 21.9 48.8 48.8 48.8h688.2c26.9 0 48.8-21.9 48.8-48.8V236.2c0-26.9-21.9-48.8-48.8-48.8zM846.4 778H177.6V246h668.7v532z" fill="#cdcdcd" p-id="4618"></path><path d="M338.1 604.1l98.9-94.7c7.2-6.9 18.6-7 25.9-0.2l102.4 95.5c6.8 6.3 17.4 6.1 23.9-0.6l138.7-141.9c11.3-11.6 11.1-30.1-0.5-41.4-11.6-11.3-30.1-11.1-41.4 0.5L580.7 529c-2.8 2.9-7.5 3-10.5 0.2l-105-97.9c-8.9-8.3-22.8-8.2-31.6 0.2l-136 130.3c-11.7 11.2-12.1 29.7-0.9 41.4s29.7 12.1 41.4 0.9z" fill="#cdcdcd" p-id="4619"></path></svg>