<svg t="1743696542675" class="icon" viewBox="0 0 1024 1024" version="1.1" xmlns="http://www.w3.org/2000/svg" p-id="6178" width="200" height="200"><path d="M284.444444 910.222222q-70.712889 0-120.661333-50.005333Q113.777778 810.268444 113.777778 739.555556V430.648889q0-91.306667 76.003555-141.994667l227.555556-151.665778Q460.344889 108.316444 512 108.316444q51.655111 0 94.663111 28.672l227.555556 151.665778Q910.222222 339.285333 910.222222 430.648889V739.555556q0 70.712889-50.005333 120.661333Q810.268444 910.222222 739.555556 910.222222H284.444444z m455.111112-113.777778q23.552 0 40.220444-16.668444T796.444444 739.555556V430.648889q0-30.435556-25.315555-47.331556l-227.555556-151.665777q-31.573333-21.048889-63.146666 0l-227.555556 151.665777Q227.555556 400.213333 227.555556 430.648889V739.555556q0 23.552 16.668444 40.220444T284.444444 796.444444h455.111112z" fill="#bfbfbf" p-id="6179"></path></svg>